<?xml version="1.0" encoding="utf-8"?>
<!-- Generator: Adobe Illustrator 18.1.0, SVG Export Plug-In . SVG Version: 6.00 Build 0)  -->
<svg version="1.0" id="Layer_1" xmlns="http://www.w3.org/2000/svg" xmlns:xlink="http://www.w3.org/1999/xlink" x="0px" y="0px"
	 viewBox="0 0 150 150" enable-background="new 0 0 150 150" xml:space="preserve">
<g>
	<rect x="14.5" y="97.2" transform="matrix(-0.8655 -0.5009 0.5009 -0.8655 -18.7757 189.4357)" fill="none" width="3" height="0"/>
	<polygon fill="none" points="14.7,96.5 14.7,96.5 14.7,96.5 	"/>
	<polygon fill="#95594A" points="14.7,96.5 14.7,96.5 14.7,96.5 	"/>
	<rect x="14.7" y="96.5" fill="#B04825" width="0" height="0"/>
	<polygon fill="#E0C58E" points="14.7,96.5 14.7,96.5 14.7,96.5 	"/>
	<g>
		<polygon fill="none" points="85.5,55.6 85.5,55.6 85.5,55.6 		"/>
	</g>
	<g>
		<polygon fill="#FFFFFF" points="78.7,141.5 78.5,141.2 85.3,137.2 85.3,96.5 85.8,96.5 85.8,137.5 85.6,137.6 		"/>
	</g>
	<g>
		
			<rect x="42.6" y="112.7" transform="matrix(0.5039 0.8638 -0.8638 0.5039 125.8857 23.0636)" fill="#FFFFFF" width="0.4" height="16.8"/>
	</g>
	<g>
		<polygon fill="#FFFFFF" points="50.4,76 49.9,76 49.9,35.3 36.5,27.5 37.3,27.5 37.4,27.6 50.1,34.9 85.4,14.5 85.6,14.9 85.6,15 
			50.4,35.3 		"/>
	</g>
	<g>
		<polygon fill="#FFFFFF" points="121.2,116.9 120.7,116.9 120.7,76.2 85.4,55.8 85.7,55.4 120.9,75.8 141.1,64.2 141.1,64.7 
			141,64.7 121.2,76.2 		"/>
	</g>
	<g>
		<rect x="85.3" y="14.7" fill="#FFFFFF" width="0.4" height="40.9"/>
	</g>
	<g>
		
			<rect x="85.2" y="138.5" transform="matrix(0.866 0.5001 -0.5001 0.866 81.1808 -25.3953)" fill="#FFFFFF" width="5.6" height="0.4"/>
	</g>
	<g>
		
			<rect x="34.1" y="26" transform="matrix(0.4995 0.8663 -0.8663 0.4995 55.5587 -7.5432)" fill="#FFFFFF" width="0.4" height="36.5"/>
	</g>
	<g>
		<polygon fill="#FFFFFF" points="50.4,135 49.9,135 49.9,117 17.2,98.2 17.4,97.8 50.1,116.7 85.4,96.3 85.6,96.7 85.5,96.7 
			50.4,117 		"/>
	</g>
	<g>
		<polygon fill="#FFFFFF" points="120.7,117.3 120.7,116.8 133.5,109.4 133.5,110 133.3,110 		"/>
	</g>
	<polygon fill="#045EA6" points="120.9,35.2 85.5,55.6 120.9,76 120.9,35.2 	"/>
	<polygon fill="#BD5227" points="85.5,55.6 85.5,55.6 85.5,55.6 	"/>
	<path fill="#0099CC" d="M120.9,35.2V76l19.9-11.5c-1.7-8.7-5.2-16.7-10.1-23.7L120.9,35.2L120.9,35.2z"/>
	<path fill="#5EA8DD" d="M120.9,76v40.9l12.3-7.1c3.9-6.7,6.7-14.1,8-22.1L120.9,76z"/>
	<path fill="#77C9B3" d="M141.3,87.8c0.6-3.4,0.9-6.9,0.9-10.5c0-4.4-0.4-8.6-1.3-12.7L120.9,76L141.3,87.8z"/>
	<path fill="#0099CC" d="M130.8,40.8c-1.9-2.7-4-5.3-6.3-7.7l-3.5,2L130.8,40.8z"/>
	<rect x="120.2" y="38" transform="matrix(-0.866 -0.5 0.5 -0.866 215.8695 133.8378)" fill="#E58925" width="11.3" height="0"/>
	<polygon fill="#4A684F" points="50.1,76 50.1,76 50.1,76 	"/>
	<polygon fill="#E55325" points="85.5,96.5 85.5,137.4 120.9,116.9 85.5,96.5 	"/>
	<polygon fill="#1F8BCB" points="120.9,76 85.5,96.5 120.9,116.9 120.9,76 	"/>
	<path fill="#FFCD06" d="M50.1,76L50.1,76L50.1,76L16.5,95.5c0.3,0.9,0.5,1.7,0.8,2.5l32.8,18.9V76L50.1,76z"/>
	<polygon fill="#59766B" points="50.1,76 50.1,76.1 50.1,76 	"/>
	<path fill="#FAAB19" d="M85.5,137.4l-35.4-20.4V135c8.4,4.1,17.9,6.4,27.9,6.4c0.2,0,0.4,0,0.6,0L85.5,137.4L85.5,137.4z"/>
	<polygon fill="#ED7F23" points="85.5,137.4 85.5,96.5 50.1,116.9 	"/>
	<path fill="#CADB2A" d="M17.3,98c3.6,10.6,10,20,18.3,27.3l14.5-8.4L17.3,98z"/>
	<path fill="#CCCB31" d="M35.6,125.3c4.4,3.9,9.2,7.1,14.5,9.7v-18.1L35.6,125.3z"/>
	<path fill="#CA992C" d="M120.9,116.7l-0.4,0.1l-35.2,20.4l0.3,0.4l0.2-0.1l4.3,2.8c11.6-2.3,24.3-8,31.2-15.6L120.9,116.7
		L120.9,116.7z"/>
	<path fill="#F6EC13" d="M126,119.8l-5-2.9l0,0v0v8C122.7,123.3,124.4,121.6,126,119.8z"/>
	<path fill="#71C8F1" d="M126,119.8c2.7-3.1,5.2-6.4,7.3-10l-12.3,7.1L126,119.8z"/>
	<rect x="123.5" y="115.5" fill="#D97858" width="0" height="5.8"/>
	<path fill="#CBCB2C" d="M85.5,137.4l-6.9,4c2.3,0,4.7-0.2,6.9-0.4V137.4z"/>
	<path fill="#CB9832" d="M85.5,137.4v3.6c1.6-0.2,3.3-0.4,4.9-0.8L85.5,137.4L85.5,137.4z"/>
	<path fill="#C3D938" d="M87.2,13.8l-4-0.4c-1.7-0.1-3.4-0.2-5.2-0.2c-10,0-19.4,2.3-27.9,6.4v15.7L87.2,13.8z"/>
	<polygon fill="#295B98" points="120.9,35.2 85.5,14.7 85.5,14.7 85.5,14.7 85.5,55.6 	"/>
	
		<rect x="85.5" y="55.6" transform="matrix(-0.8167 -0.5771 0.5771 -0.8167 123.3189 150.3807)" fill="#385E54" width="0" height="0"/>
	<polygon fill="#385E54" points="120.9,35.2 120.9,35.2 85.5,55.6 85.5,55.6 85.5,55.6 120.9,35.2 	"/>
	<polygon fill="#385E54" points="85.5,55.6 85.5,55.6 85.5,55.6 	"/>
	<path fill="#006666" d="M120.9,35.2L120.9,35.2l0-5.5c-9.2-8.3-20.9-14-33.8-15.8l-1.6,0.9L120.9,35.2z"/>
	<polygon fill="#521010" points="120.9,35.2 120.9,35.2 120.9,35.2 	"/>
	<polygon fill="#7A7953" points="50.1,76.1 50.1,76 50.1,76 	"/>
	<polygon fill="#DEE21D" points="50.1,35.2 85.5,55.6 85.5,55.6 85.5,14.7 	"/>
	<polygon fill="#4A684F" points="85.5,55.6 85.5,55.6 85.5,55.6 	"/>
	<g>
		<linearGradient id="SVGID_1_" gradientUnits="userSpaceOnUse" x1="81.7557" y1="22.0679" x2="85.7968" y2="57.9318">
			<stop  offset="0" style="stop-color:#8D2326"/>
			<stop  offset="1" style="stop-color:#6C1A1D"/>
		</linearGradient>
		<polygon fill="url(#SVGID_1_)" points="85.5,55.6 85.5,55.6 85.5,55.6 		"/>
	</g>
	<g>
		<path fill="#52BA65" d="M50.1,19.5c-4.6,2.2-8.9,5-12.9,8.2l12.9,7.4V19.5z"/>
	</g>
	<g>
		<path fill="#6CBE45" d="M37.3,27.7C29,34.5,22.5,43.4,18.5,53.4l31.7-18.3L37.3,27.7z"/>
	</g>
	<g>
		<path fill="#21A349" d="M16.5,95.4L50.1,76l-33-19c-1.1,3.2-1.9,6.5-2.4,9.9l0,0C13,78.2,15.4,92.9,16.5,95.4z"/>
	</g>
	<g>
		<path fill="#79B542" d="M50.1,35.2L18.5,53.4c-0.5,1.2-0.9,2.4-1.3,3.6l33,19l0,0V35.2L50.1,35.2z"/>
	</g>
	<g>
		<polygon fill="#5B2B2E" points="50.1,76.1 50.1,76 50.1,76 		"/>
	</g>
	<g>
		<path fill="#009999" d="M120.9,29.6v5.5l0,0l3.5-2C123.4,31.9,122.2,30.7,120.9,29.6z"/>
	</g>
	<g>
		<polygon fill="#B54C26" points="120.9,35.2 120.9,35.2 121,35.2 120.9,35.2 120.9,35.2 120.9,35.2 120.9,35.2 		"/>
	</g>
	<g>
		<polygon fill="#079948" points="121,35.2 124.5,33.1 124.5,33.1 120.9,35.2 		"/>
	</g>
	<g>
		<rect x="120.9" y="35.2" fill="#B54C26" width="0" height="0"/>
	</g>
</g>
</svg>
